<?xml version="1.0" standalone="no"?>
<!DOCTYPE svg PUBLIC "-//W3C//DTD SVG 20010904//EN"
 "http://www.w3.org/TR/2001/REC-SVG-20010904/DTD/svg10.dtd">
<svg version="1.0" xmlns="http://www.w3.org/2000/svg"
 width="300.000000pt" height="300.000000pt" viewBox="0 0 300.000000 300.000000"
 preserveAspectRatio="xMidYMid meet">
<metadata>
Created by potrace 1.11, written by Peter Selinger 2001-2013
</metadata>
<g transform="translate(0.000000,300.000000) scale(0.100000,-0.100000)"
fill="#000000" stroke="none">
<path d="M1450 2830 c-25 -9 -54 -20 -65 -24 -74 -29 -102 -38 -115 -41 -8 -2
-58 -19 -110 -38 -52 -19 -165 -60 -250 -90 -180 -65 -177 -63 -425 -151 -104
-37 -200 -72 -212 -78 l-21 -11 0 -629 0 -629 630 -315 630 -315 627 312 c344
172 628 314 630 315 3 2 4 1102 2 1237 -1 21 -6 37 -13 37 -11 0 -331 112
-373 130 -53 23 -869 310 -879 309 -6 -1 -31 -9 -56 -19z"/>
<path d="M68 998 c-1 -29 -2 -71 0 -93 l3 -40 192 -96 c106 -53 427 -214 714
-358 l523 -261 712 356 c392 196 714 358 716 359 3 3 4 85 3 158 -1 27 -8 24
-618 -284 -340 -172 -661 -334 -713 -359 l-95 -47 -710 356 c-390 196 -713
357 -717 359 -3 2 -8 -21 -10 -50z"/>
</g>
</svg>
